<svg xmlns="http://www.w3.org/2000/svg" version="1.1" xmlns:xlink="http://www.w3.org/1999/xlink" xmlns:svgjs="http://svgjs.dev/svgjs" width="2000" height="1500" viewBox="0 0 2000 1500"><rect width="2000" height="1500" fill="#ffffff"></rect><g transform="matrix(0.75,0,0,0.75,249.0909356111424,420.99550844067517)"><svg viewBox="0 0 396 174" data-background-color="#000000" preserveAspectRatio="xMidYMid meet" height="878" width="2000" xmlns="http://www.w3.org/2000/svg" xmlns:xlink="http://www.w3.org/1999/xlink"><g id="tight-bounds" transform="matrix(1,0,0,1,0.23999301917012872,-0.06487238979117649)"><svg viewBox="0 0 395.52 174.12974477958235" height="174.12974477958235" width="395.52"><g><svg viewBox="0 0 395.52000000000004 174.12974477958238" height="174.12974477958235" width="395.52"><g><svg viewBox="0 0 395.52000000000004 174.12974477958238" height="174.12974477958238" width="395.52000000000004"><g id="textblocktransform"><svg viewBox="0 0 395.52000000000004 174.12974477958238" height="174.12974477958238" width="395.52000000000004" id="textblock"><g><svg viewBox="0 0 395.52000000000004 174.12974477958238" height="174.12974477958238" width="395.52000000000004"><g transform="matrix(1,0,0,1,0,0)"><svg width="395.52000000000004" viewBox="0.05000000447034836 -37.95000076293945 86.19999694824219 37.95000076293945" height="174.12974477958238" data-palette-color="#89939e"><path d="M32.3 0L26.9 0Q26.65-0.55 26.2-1.6 25.75-2.65 25.18-4.03 24.6-5.4 23.93-7.03 23.25-8.65 22.55-10.4L22.55-10.4 9.75-10.4 5.45 0 0.05 0 16.2-37.95Q16.5-37.25 17.28-35.4 18.05-33.55 19.13-30.98 20.2-28.4 21.53-25.28 22.85-22.15 24.23-18.95 25.6-15.75 26.93-12.65 28.25-9.55 29.35-6.95 30.45-4.35 31.23-2.53 32-0.7 32.3 0L32.3 0ZM15.65-24.7L11.65-15 20.7-15Q20-16.65 19.38-18.18 18.75-19.7 18.23-20.98 17.7-22.25 17.3-23.2 16.9-24.15 16.7-24.7L16.7-24.7Q16.65-24.8 16.48-25.4 16.3-26 16.2-26.5L16.2-26.5Q16.1-26 15.9-25.4 15.7-24.8 15.65-24.7L15.65-24.7ZM42.3 0L36.8 0 36.8-36.25 46.7-36.25Q49.55-36.25 51.92-35.5 54.3-34.75 56.02-33.27 57.75-31.8 58.7-29.68 59.65-27.55 59.65-24.8L59.65-24.8Q59.65-23.3 59.35-21.83 59.05-20.35 58.37-18.98 57.7-17.6 56.65-16.43 55.6-15.25 54.1-14.45L54.1-14.45Q56.1-11.3 58.45-7.48 60.8-3.65 63.2 0L63.2 0 56.65 0Q55.65-1.55 54.57-3.25 53.5-4.95 52.42-6.63 51.35-8.3 50.32-9.93 49.3-11.55 48.4-12.95L48.4-12.95 47.4-12.95 42.3-12.95 42.3 0ZM42.3-31.15L42.3-18.1 47.25-18.1Q49.25-18.1 50.6-18.78 51.95-19.45 52.72-20.45 53.5-21.45 53.82-22.6 54.15-23.75 54.15-24.7L54.15-24.7Q54.15-25.65 53.82-26.78 53.5-27.9 52.7-28.88 51.9-29.85 50.57-30.5 49.25-31.15 47.3-31.15L47.3-31.15 42.3-31.15ZM79.09-28.45L65.25-28.45 65.25-32.95 86.25-32.95Q84.5-28.65 82.84-24.5 81.2-20.35 79.59-16.28 78-12.2 76.4-8.15 74.8-4.1 73.2 0L73.2 0 68 0Q70.55-6.55 73.4-13.88 76.25-21.2 79.09-28.45L79.09-28.45Z" opacity="1" transform="matrix(1,0,0,1,0,0)" fill="#000000" class="undefined-text-0" data-fill-palette-color="primary" id="text-0"></path></svg></g></svg></g></svg></g></svg></g></svg></g><defs></defs></svg><rect width="395.52" height="174.12974477958235" fill="none" stroke="none" visibility="hidden"></rect></g></svg></g></svg>